<svg width="147" height="65" viewBox="0 0 147 65" fill="none" xmlns="http://www.w3.org/2000/svg">
<g clip-path="url(#clip0_1201_948)">
<path d="M22.6909 65.0008C24.6621 65.0008 26.3239 63.3711 26.3327 61.4068V34.1172H3.88052V57.3371C3.88052 58.2973 3.54462 59.2398 2.88166 59.9357C2.1745 60.6757 1.10493 61.1425 0 61.1425V65.0008H22.6909Z" fill="white"/>
<path d="M3.88052 7.7253C3.88052 5.59358 2.14799 3.85825 0 3.85825V0H26.3239V30.8836H3.88052V7.7253Z" fill="white"/>
<path d="M54.7519 57.3371V50.1932C54.7519 40.5212 48.4936 34.1172 39.5127 34.1172H29.5684V49.559C29.5684 58.9227 35.4819 65.0008 45.0639 65.0008H58.6325V61.1425C56.4933 61.1425 54.7519 59.4689 54.7519 57.3371Z" fill="white"/>
<path d="M53.6638 15.4946C53.6638 15.9879 53.6372 16.49 53.5842 16.9833C53.4958 17.8378 53.3544 18.6922 53.1599 19.5291C52.9743 20.3395 52.7268 21.1323 52.4262 21.9074C52.1345 22.6562 51.7986 23.3785 51.4009 24.0744C51.0119 24.7527 50.5788 25.3957 50.0926 26.0035C49.6153 26.6025 49.0761 27.1487 48.5015 27.6596C47.927 28.1617 47.3082 28.6109 46.6452 29.0073C45.9734 29.4037 45.2663 29.7384 44.5326 30.0115C43.7636 30.2934 42.9769 30.5048 42.1725 30.6458C41.3151 30.7955 40.4488 30.8924 39.5737 30.8924H29.5586V0L39.503 0.0176176C40.3692 0.0176176 41.2355 0.0968966 42.0929 0.237837C42.8973 0.369969 43.6929 0.58138 44.4531 0.854452C45.1867 1.11872 45.8939 1.45345 46.5657 1.84104C47.2198 2.22862 47.8474 2.66906 48.4308 3.17116C49.0054 3.67326 49.5446 4.21941 50.0219 4.80959C50.5169 5.40859 50.9501 6.05163 51.339 6.7211C51.7368 7.40819 52.0815 8.1305 52.3732 8.87044C52.6737 9.63681 52.9213 10.4296 53.1157 11.2312C53.319 12.068 53.4605 12.9137 53.5577 13.7681C53.6196 14.3495 53.6549 14.9221 53.6549 15.4946" fill="white"/>
<path d="M85.3886 12.4297H83.3379V13.9624H85.3886V12.4297Z" fill="white"/>
<path d="M117.883 12.4297H115.832V13.9624H117.883V12.4297Z" fill="white"/>
<path d="M65.5618 35.3815V33.3114H67.2413C67.7187 33.3291 68.0987 33.47 68.3639 33.7519C68.6291 34.0338 68.7617 34.4213 68.7617 34.9146V35.496C68.7617 36.0686 68.8943 36.5266 69.1683 36.8878C69.3716 37.1609 69.6899 37.3282 70.1141 37.3899C70.2556 37.4163 70.4147 37.4251 70.5738 37.4251H71.6345V36.1919C70.7859 36.1919 70.8036 35.4167 70.8036 35.4167V34.897C70.8036 34.2892 70.671 33.7783 70.4058 33.3643C70.1407 32.9503 69.7075 32.6596 69.1064 32.4834C69.6368 32.2544 70.0434 31.9461 70.3175 31.5673C70.5915 31.1885 70.7329 30.7481 70.7329 30.2284C70.7329 29.2946 70.4058 28.5635 69.7429 28.035C69.0799 27.5065 68.1695 27.2422 67.0115 27.2422H62.4238V28.4754C62.4238 28.4754 63.458 28.4226 63.5111 29.3034V35.3727C63.5111 35.3727 63.573 36.2007 62.4238 36.2007V37.4251H66.6579V36.2007C66.6579 36.2007 65.5618 36.2712 65.5618 35.3727M68.2579 31.3735C67.975 31.6202 67.5419 31.7347 66.9761 31.7347H65.5618V28.819H67.0115C67.5595 28.819 67.9838 28.9599 68.2667 29.233C68.5496 29.506 68.691 29.8672 68.691 30.3253C68.691 30.7833 68.5496 31.1357 68.2667 31.3735" fill="white"/>
<path d="M75.7187 29.7266C74.6049 29.7266 73.7209 30.0877 73.0933 30.81C72.4569 31.5324 72.1387 32.4573 72.1387 33.5848V33.7346C72.1387 34.8709 72.4569 35.7958 73.0933 36.5093C73.7298 37.2228 74.6049 37.584 75.7363 37.584C76.8678 37.584 77.7252 37.2228 78.3528 36.5093C78.9892 35.7958 79.2986 34.8709 79.2986 33.7346V33.5848C79.2986 32.4485 78.9804 31.5236 78.3528 30.81C77.7164 30.0965 76.8413 29.7354 75.7187 29.7354M77.2656 33.7346C77.2656 34.2455 77.1948 34.6859 77.0622 35.0559C77.018 35.1792 76.965 35.2937 76.9031 35.3994C76.6556 35.8222 76.2667 36.0248 75.7452 36.0248C75.2236 36.0248 74.8082 35.8134 74.5695 35.3994C74.322 34.9854 74.2071 34.4304 74.2071 33.7346V33.5848C74.2071 32.9153 74.3309 32.3692 74.5695 31.9464C74.8082 31.5236 75.1971 31.3121 75.7363 31.3121C76.2755 31.3121 76.6645 31.5236 76.912 31.9464C77.1595 32.3692 77.2832 32.9153 77.2832 33.5848V33.7346H77.2656Z" fill="white"/>
<path d="M117.212 36.2138V37.4382H113.287V36.2138C114.215 36.2138 114.171 35.5091 114.171 35.5091V32.8489C114.171 32.2763 114.074 31.8799 113.888 31.6509C113.702 31.4218 113.419 31.3161 113.057 31.3161C112.765 31.3161 112.518 31.3778 112.306 31.5099C112.093 31.6332 111.926 31.8182 111.793 32.0473C111.793 32.1265 111.793 32.2058 111.793 32.2587C111.793 32.3115 111.793 32.3644 111.793 32.426V35.5003C111.793 35.5003 111.749 36.205 112.624 36.205V37.4294H108.929V36.205C109.795 36.205 109.76 35.5003 109.76 35.5003V32.84C109.76 32.2851 109.671 31.8887 109.477 31.6509C109.283 31.413 109.009 31.3073 108.637 31.3073C108.363 31.3073 108.116 31.3602 107.912 31.4659C107.7 31.5716 107.532 31.7213 107.4 31.9063V35.4915C107.4 35.4915 107.373 36.1962 108.284 36.1962V37.4206H104.368V36.1962C104.368 36.1962 105.358 36.249 105.358 35.4739V31.9504C105.358 31.9504 105.446 31.0783 104.262 31.0783V29.8451H107.258L107.347 30.8405C107.585 30.4793 107.895 30.1974 108.266 29.9948C108.637 29.801 109.062 29.6953 109.539 29.6953C110.016 29.6953 110.44 29.801 110.785 30.0212C111.13 30.2327 111.395 30.5586 111.572 30.9902C111.802 30.585 112.111 30.2679 112.482 30.0389C112.854 29.8098 113.296 29.6953 113.799 29.6953C114.551 29.6953 115.134 29.9508 115.567 30.4705C116.001 30.9814 116.213 31.7654 116.213 32.8224V35.4739C116.213 35.4739 116.177 36.1786 117.203 36.1786" fill="white"/>
<path d="M122.206 29.7286C121.791 29.7286 121.428 29.8166 121.11 29.9928C120.792 30.169 120.527 30.4244 120.306 30.7504L120.208 29.8695H117.238V31.0939C117.238 31.0939 118.334 31.0499 118.334 31.9219V38.2907C118.334 38.2907 118.379 39.1011 117.344 39.1011V40.3343H121.366V39.1011C120.288 39.1011 120.376 38.2907 120.376 38.2907V36.7051C120.597 36.987 120.862 37.2072 121.172 37.3482C121.481 37.4979 121.835 37.5684 122.233 37.5684C123.161 37.5684 123.886 37.2248 124.407 36.5466C124.929 35.8683 125.185 34.961 125.185 33.8511V33.7013C125.185 32.5033 124.929 31.5432 124.407 30.812C123.886 30.0809 123.161 29.7109 122.224 29.7109M123.143 33.8423C123.143 34.5029 123.028 35.0314 122.798 35.419C122.568 35.8066 122.206 36.0004 121.711 36.0004C121.393 36.0004 121.128 35.9476 120.907 35.833C120.686 35.7185 120.518 35.56 120.394 35.3397V32.0276C120.518 31.7986 120.694 31.6136 120.907 31.4903C121.128 31.367 121.384 31.3053 121.693 31.3053C122.188 31.3053 122.551 31.5255 122.789 31.966C123.028 32.4064 123.152 32.9878 123.152 33.7013V33.8511L123.143 33.8423Z" fill="white"/>
<path d="M134.351 29.7266C133.238 29.7266 132.354 30.0877 131.726 30.81C131.09 31.5324 130.771 32.4573 130.771 33.5848V33.7346C130.771 34.8709 131.09 35.7958 131.726 36.5093C132.363 37.2228 133.238 37.584 134.369 37.584C135.501 37.584 136.358 37.2228 136.986 36.5093C137.622 35.7958 137.94 34.8709 137.94 33.7346V33.5848C137.94 32.4485 137.622 31.5236 136.986 30.81C136.349 30.0965 135.474 29.7354 134.351 29.7354M135.898 33.7346C135.898 34.2455 135.828 34.6859 135.695 35.0559C135.651 35.1792 135.598 35.2937 135.536 35.3994C135.288 35.8222 134.9 36.0248 134.378 36.0248C133.856 36.0248 133.441 35.8134 133.202 35.3994C132.955 34.9854 132.84 34.4304 132.84 33.7346V33.5848C132.84 32.9153 132.964 32.3692 133.202 31.9464C133.441 31.5236 133.83 31.3121 134.369 31.3121C134.908 31.3121 135.288 31.5236 135.545 31.9464C135.792 32.3692 135.916 32.9153 135.916 33.5848V33.7346H135.898Z" fill="white"/>
<path d="M95.9968 36.2131V37.4375H92.081V36.2131C92.081 36.2131 92.9649 36.2748 92.9649 35.4115V32.9362C92.9649 32.346 92.8588 31.932 92.6555 31.6854C92.4522 31.4387 92.134 31.3154 91.7274 31.3154C91.4445 31.3154 91.1882 31.3683 90.976 31.4652C90.7639 31.5709 90.5871 31.7118 90.4368 31.8968V35.4027C90.4368 35.4027 90.3838 36.2043 91.3208 36.2043V37.4287H87.4049V36.2043C87.4049 36.2043 88.3949 36.266 88.3949 35.3939V28.5847C88.3949 28.5847 88.4303 27.7567 87.2988 27.7567V26.5234H90.4368V30.8309C90.6755 30.4786 90.9672 30.2143 91.3119 30.0205C91.6567 29.8267 92.0456 29.7298 92.4611 29.7298C93.2566 29.7298 93.8842 29.9941 94.3262 30.5138C94.777 31.0423 95.0068 31.8439 95.0068 32.945V35.3939C95.0068 35.3939 94.9184 36.2131 95.988 36.2131" fill="white"/>
<path d="M103.006 35.5051V32.378C103.006 31.5324 102.714 30.8805 102.122 30.4136C101.538 29.9556 100.769 29.7266 99.8323 29.7266C99.2577 29.7266 98.7362 29.8147 98.25 29.982C97.7638 30.1494 97.3395 30.3696 96.9595 30.6162V32.2899H98.4975C98.4975 32.2899 98.5682 31.2064 99.6997 31.2064C100.106 31.2064 100.425 31.3033 100.628 31.5059C100.84 31.7085 100.946 31.9904 100.946 32.3516V33.0915H99.903C98.7981 33.0915 97.9583 33.2853 97.3926 33.6729C96.818 34.0605 96.5352 34.6066 96.5352 35.3113C96.5352 35.5139 96.5528 35.6989 96.5882 35.8751C96.6412 36.1217 96.7296 36.3508 96.8534 36.5534C96.9418 36.7031 97.0567 36.8352 97.1893 36.9586C97.5429 37.2845 98.0025 37.4783 98.5682 37.54C98.692 37.5488 98.8246 37.5664 98.9572 37.5664C99.0279 37.5664 99.0898 37.5664 99.1605 37.5576C99.5317 37.5311 99.8588 37.4519 100.159 37.3109C100.504 37.1347 100.805 36.9145 101.043 36.6326C101.043 36.6326 100.955 37.1436 101.291 37.4254H103.651V36.201C102.926 36.201 102.997 35.4963 102.997 35.4963M100.937 35.3642C100.937 35.3642 100.92 35.3818 100.92 35.3906C100.778 35.5844 100.592 35.743 100.354 35.8663C100.097 35.9984 99.8234 36.0689 99.5141 36.0689C99.2047 36.0689 98.9925 35.9984 98.8246 35.8487C98.6566 35.7077 98.5771 35.5051 98.5771 35.2497C98.5771 35.1704 98.5859 35.0911 98.6036 35.0206C98.6478 34.8357 98.745 34.6683 98.913 34.5185C99.134 34.3159 99.4698 34.2102 99.903 34.2102H100.946V35.3642H100.937Z" fill="white"/>
<path d="M123.442 21.0724L123.619 22.5434C123.389 22.6139 123.159 22.6667 122.938 22.702C122.717 22.7372 122.47 22.7548 122.204 22.7548C121.497 22.7548 120.958 22.561 120.569 22.1735C120.189 21.7859 119.995 21.1781 119.995 20.3324V16.4742H118.881V15.0383H119.341C119.694 15.0383 119.995 14.7477 119.995 14.3953V13.1797H122.037V15.0295H123.371V16.4654H122.037V20.3148C122.037 20.6055 122.098 20.8169 122.222 20.9402C122.222 20.9402 122.576 21.3366 123.433 21.0547" fill="white"/>
<path d="M66.6403 13.6629V12.4297H62.4062V13.6629C62.4062 13.6629 63.4935 13.6982 63.4935 14.7552V19.186C63.4935 20.3312 63.8648 21.212 64.6161 21.8287C65.3675 22.4453 66.3486 22.7624 67.5685 22.7624C68.7883 22.7624 69.7872 22.4541 70.5385 21.8287C71.2899 21.212 71.67 20.3312 71.67 19.186V14.7552C71.67 14.7552 71.6523 13.6629 72.7661 13.6629V12.4297H68.532V13.6629C69.6192 13.6629 69.6192 14.7552 69.6192 14.7552V19.0891C69.6192 19.7674 69.4336 20.2695 69.0712 20.5954C68.7088 20.9302 68.2049 21.0887 67.5596 21.0887C66.9144 21.0887 66.4282 20.9214 66.0658 20.5866C65.7034 20.2519 65.5177 19.7498 65.5177 19.0803V14.7552C65.5177 14.7552 65.4647 13.6629 66.6138 13.6629" fill="white"/>
<path d="M81.6413 21.3885V22.6129H77.7254V21.3885C78.6712 21.3885 78.6005 20.5781 78.6005 20.5781V17.9002C78.6005 17.3893 78.4944 17.0282 78.2911 16.8168C78.0878 16.6053 77.7784 16.4996 77.363 16.4996C77.089 16.4996 76.8503 16.5525 76.6293 16.667C76.4172 16.7727 76.2315 16.9313 76.0901 17.1339V20.5869C76.0901 20.5869 76.0105 21.3973 76.921 21.3973V22.6217H73.067V21.3973C74.0659 21.3973 74.0482 20.5869 74.0482 20.5869V17.1163C74.0482 16.2001 72.9609 16.2882 72.9609 16.2882V15.055H75.9575L76.0459 16.1385C76.3022 15.7509 76.6116 15.4514 76.974 15.24C77.3453 15.0286 77.7608 14.9141 78.2116 14.9141C78.9806 14.9141 79.5728 15.1519 80.006 15.6364C80.4391 16.1121 80.6513 16.8696 80.6513 17.8914V20.5781C80.6513 20.5781 80.5717 21.3885 81.6324 21.3885" fill="white"/>
<path d="M86.4668 16.2801V15.0469H89.9142V16.2801C89.5341 16.3506 89.2954 16.7382 89.4015 17.1081L90.197 19.9357L90.3296 20.429H90.3738L90.5241 19.9357L91.3108 17.1081C91.4169 16.7382 91.1871 16.3506 90.807 16.2801H90.7893V15.0469H94.2367V16.2801C93.5737 16.2801 93.4146 16.8439 93.4146 16.8439L91.3373 22.6136H89.3838L87.3065 16.8439C87.3065 16.8439 87.1739 16.2801 86.4845 16.2801" fill="white"/>
<path d="M97.8877 14.9082C96.8446 14.9082 96.0137 15.2606 95.3949 15.9917C94.7762 16.714 94.4668 17.6478 94.4668 18.7665V19.0484C94.4668 20.123 94.7939 21.0127 95.448 21.7086C96.1021 22.4045 96.9772 22.7569 98.0733 22.7569C98.6832 22.7569 99.2401 22.6688 99.7351 22.5014C100.23 22.334 100.637 22.1226 100.955 21.876L100.398 20.6163C100.044 20.8101 99.7174 20.9599 99.4169 21.048C99.1163 21.1361 98.7451 21.1801 98.2854 21.1801C97.7728 21.1801 97.375 21.0215 97.0744 20.6956C96.7739 20.3785 96.6148 19.9645 96.5706 19.4624L96.5883 19.4183H101.123V18.3084C101.123 17.2602 100.84 16.4322 100.274 15.8155C99.7086 15.1989 98.913 14.8906 97.8877 14.8906M99.1163 18.0706H96.6059L96.5883 18.0354C96.6413 17.5685 96.7739 17.1897 96.9949 16.899C97.2159 16.6083 97.5164 16.4674 97.8965 16.4674C98.3031 16.4674 98.6125 16.5995 98.8158 16.855C99.0191 17.1104 99.1252 17.4628 99.1252 17.8944V18.0794L99.1163 18.0706Z" fill="white"/>
<path d="M106.622 14.9072C106.728 14.9072 106.843 14.9072 106.967 14.9337C107.081 14.9513 107.285 14.9953 107.364 15.013L107.02 16.9685L106.206 16.8276C106.206 16.8276 105.543 16.6602 105.163 17.1887C105.066 17.3297 105.013 17.5235 105.013 17.6996V20.5713C105.013 20.5713 104.96 21.3817 105.994 21.3817V22.6061H101.981V21.3817C103.015 21.3817 102.962 20.5713 102.962 20.5713V17.1006C102.962 16.1845 101.875 16.2726 101.875 16.2726V15.0394H104.872L104.96 16.1405C105.137 15.7529 105.367 15.4446 105.649 15.2244C105.932 15.0041 106.251 14.8984 106.622 14.8984" fill="white"/>
<path d="M113.322 18.9475C112.871 18.5863 112.173 18.3133 111.236 18.1283C110.634 18.0138 110.228 17.8728 110.025 17.7231C109.821 17.5733 109.724 17.3795 109.724 17.1505C109.724 16.9127 109.83 16.7101 110.042 16.5427C110.254 16.3841 110.537 16.3049 110.9 16.3049C111.156 16.3049 111.395 16.3401 111.607 16.4194C111.686 16.4458 111.757 16.481 111.828 16.5075C112.022 16.6044 112.155 16.7893 112.208 17.0007L112.314 17.6438H113.728L113.711 15.7675C113.41 15.5209 112.995 15.3183 112.473 15.1597C111.943 15.0012 111.386 14.9219 110.802 14.9219C109.83 14.9219 109.088 15.1509 108.566 15.609C108.044 16.067 107.779 16.6132 107.779 17.2474C107.779 17.8816 108.009 18.3485 108.46 18.7008C108.92 19.0532 109.591 19.3263 110.484 19.5112C111.076 19.6346 111.474 19.7843 111.695 19.9429C111.916 20.1102 112.022 20.304 112.022 20.5243C112.022 20.7797 111.916 20.9823 111.695 21.1321C111.474 21.2818 111.165 21.3523 110.741 21.3523C110.511 21.3523 110.29 21.3259 110.078 21.2818C110.051 21.2818 110.033 21.273 110.007 21.2642C109.759 21.1937 109.565 20.9999 109.494 20.7445L109.344 20.0662H107.868L107.885 21.7663C108.265 22.0834 108.699 22.3301 109.185 22.4974C109.671 22.6648 110.21 22.7529 110.794 22.7529C111.748 22.7529 112.526 22.5415 113.109 22.1098C113.693 21.6782 113.993 21.1233 113.993 20.445C113.993 19.8107 113.764 19.3175 113.313 18.9563" fill="white"/>
<path d="M138.01 14.9062C136.896 14.9062 136.012 15.2674 135.384 15.9897C134.748 16.712 134.43 17.637 134.43 18.7645V18.9142C134.43 20.0506 134.748 20.9755 135.384 21.689C136.021 22.4025 136.896 22.7637 138.027 22.7637C139.159 22.7637 140.016 22.4025 140.644 21.689C141.28 20.9755 141.598 20.0506 141.598 18.9142V18.7645C141.598 17.6282 141.28 16.7032 140.644 15.9897C140.007 15.2762 139.132 14.9151 138.01 14.9151M139.557 18.9142C139.557 19.6013 139.433 20.1475 139.185 20.5703C138.938 20.9931 138.549 21.1957 138.027 21.1957C137.506 21.1957 137.09 20.9843 136.852 20.5703C136.604 20.1563 136.489 19.6013 136.489 18.9054V18.7557C136.489 18.0862 136.613 17.5401 136.852 17.1173C137.09 16.6944 137.479 16.483 138.019 16.483C138.558 16.483 138.938 16.6944 139.185 17.1173C139.433 17.5401 139.557 18.0862 139.557 18.7557V18.9054V18.9142Z" fill="white"/>
<path d="M143.844 12.2444C143.357 12.7112 143.11 13.3543 143.11 14.2087V15.0456H141.979V16.4814H143.11V20.5775C143.11 20.5775 143.154 21.3879 142.12 21.3879V22.6123H146.151V21.3879C145.09 21.3879 145.161 20.5775 145.161 20.5775V16.4814H146.672V15.0456H145.161V14.2087C145.161 13.8652 145.249 13.6097 145.417 13.4247C145.718 13.0988 146.345 13.0812 146.743 13.2309V11.6366C146.743 11.6366 144.94 11.2049 143.852 12.2356" fill="white"/>
<path d="M83.3372 17.0993V20.57C83.3372 21.354 82.3472 21.3804 82.3472 21.3804V22.6048H86.3692V21.3804C86.3692 21.3804 85.388 21.4421 85.388 20.57V15.0469H82.25V16.2801C82.25 16.2801 83.3461 16.1656 83.3461 17.1081" fill="white"/>
<path d="M115.831 17.0993V20.57C115.831 21.354 114.841 21.3804 114.841 21.3804V22.6048H118.863V21.3804C118.863 21.3804 117.882 21.4421 117.882 20.57V15.0469H114.744V16.2801C114.744 16.2801 115.84 16.1656 115.84 17.1081" fill="white"/>
<path d="M128.287 19.9015L129.189 17.2236C129.33 16.8008 129.056 16.3516 128.614 16.2811H128.605V15.0479H132.327V16.2811C131.646 16.2811 131.469 16.7832 131.469 16.7832L128.826 23.7421C128.605 24.2883 128.313 24.7463 127.942 25.1163C127.58 25.4863 127.023 25.6713 126.28 25.6713C126.104 25.6713 125.944 25.6536 125.794 25.6272C125.644 25.6008 125.458 25.5567 125.255 25.5039L125.494 24.0152C126.758 24.2883 127.085 23.1872 127.085 23.1872L127.315 22.6146L125.061 16.7744C125.061 16.7744 124.893 16.2459 124.203 16.2723V15.0391H127.925V16.2723C127.483 16.3428 127.209 16.8008 127.35 17.2236L128.287 19.8927V19.9015Z" fill="white"/>
<path d="M83.5595 29.7364C82.5165 29.7364 81.6856 30.0887 81.0668 30.8198C80.448 31.551 80.1387 32.4759 80.1387 33.5946V33.8765C80.1387 34.9512 80.4657 35.8409 81.1198 36.5367C81.774 37.2326 82.6491 37.585 83.7452 37.585C84.3551 37.585 84.912 37.4969 85.407 37.3295C85.902 37.1622 86.3086 36.9508 86.6268 36.7041L86.0699 35.4445C85.7164 35.6383 85.3893 35.788 85.0888 35.8761C84.7882 35.9642 84.417 36.0082 83.9573 36.0082C83.4446 36.0082 83.0468 35.8497 82.7463 35.5237C82.4458 35.2066 82.2867 34.7926 82.2425 34.2905L82.2601 34.2465H86.7948V33.1366C86.7948 32.0883 86.5119 31.2603 85.9462 30.6437C85.3805 30.0271 84.5849 29.7188 83.5595 29.7188M84.7882 32.8987H82.2778L82.2601 32.8635C82.3132 32.3966 82.4458 32.0178 82.6667 31.7272C82.8877 31.4365 83.1883 31.2955 83.5684 31.2955C83.975 31.2955 84.2844 31.4277 84.4877 31.6831C84.691 31.9386 84.7971 32.2909 84.7971 32.7225V32.9075L84.7882 32.8987Z" fill="white"/>
<path d="M147.001 36.2166V37.4411H143.085V36.2166C144.031 36.2166 143.96 35.4062 143.96 35.4062V32.7284C143.96 32.2175 143.854 31.8563 143.65 31.6449C143.447 31.4335 143.129 31.3278 142.714 31.3278C142.439 31.3278 142.201 31.3806 141.989 31.4951C141.777 31.6008 141.591 31.7594 141.449 31.962V35.415C141.449 35.415 141.37 36.2254 142.28 36.2254V37.4499H138.426V36.2254C139.425 36.2254 139.408 35.415 139.408 35.415V31.9444C139.408 31.0283 138.32 31.1164 138.32 31.1164V29.8831H141.317L141.405 30.9666C141.653 30.579 141.971 30.2795 142.333 30.0681C142.705 29.8567 143.12 29.7422 143.571 29.7422C144.34 29.7422 144.932 29.98 145.365 30.4645C145.798 30.9402 146.011 31.6977 146.011 32.7196V35.4062C146.011 35.4062 145.931 36.2166 146.992 36.2166" fill="white"/>
<path d="M130.214 35.9083L130.39 37.3794C130.16 37.4498 129.931 37.5027 129.71 37.5379C129.489 37.5732 129.241 37.5908 128.976 37.5908C128.269 37.5908 127.73 37.397 127.341 37.0094C126.961 36.6218 126.766 36.014 126.766 35.1684V31.3101H125.652V29.8743H126.112C126.466 29.8743 126.766 29.5836 126.766 29.2312V28.0156H128.808V29.8655H130.143V31.3013H128.808V35.1507C128.808 35.4414 128.87 35.6528 128.994 35.7762C128.994 35.7762 129.347 36.1726 130.205 35.8907" fill="white"/>
<path d="M63.5033 44.0262C63.5033 43.0836 62.416 43.1629 62.416 43.1629V41.9297H66.6413V43.1629C66.6413 43.1629 65.5452 43.0748 65.5452 44.035V50.5359H67.6843C67.6843 50.5359 68.5241 50.5975 68.5241 49.2586H70.0887V52.095H62.416V50.8706C63.6005 50.8706 63.5033 49.9985 63.5033 49.9985V44.0174V44.0262Z" fill="white"/>
<path d="M70.875 48.2547C70.875 47.1272 71.1932 46.2022 71.8208 45.4887C72.4573 44.7664 73.3235 44.4141 74.4461 44.4141C75.5687 44.4141 76.4438 44.7752 77.0803 45.4887C77.7079 46.2022 78.0261 47.1272 78.0261 48.2635V48.4132C78.0261 49.5496 77.7079 50.4745 77.0803 51.188C76.4438 51.9015 75.5776 52.2627 74.4638 52.2627C73.35 52.2627 72.4573 51.9015 71.8297 51.188C71.1932 50.4745 70.8838 49.5496 70.8838 48.4132V48.2635L70.875 48.2547ZM72.9169 48.4044C72.9169 49.0915 73.0407 49.6465 73.2793 50.0605C73.5268 50.4745 73.9158 50.6859 74.455 50.6859C74.9942 50.6859 75.3743 50.4745 75.6129 50.0605C75.8604 49.6465 75.9842 49.0915 75.9842 48.4044V48.2547C75.9842 47.5852 75.8604 47.0391 75.6129 46.6163C75.3654 46.1934 74.9765 45.982 74.4461 45.982C73.9158 45.982 73.5268 46.1934 73.2793 46.6163C73.0407 47.0391 72.9169 47.5852 72.9169 48.2547V48.4044Z" fill="white"/>
<path d="M91.5065 42.4442V41.2109H94.6445V50.0638C94.6445 50.0638 94.5826 50.883 95.6256 50.883V52.1074H92.8677C92.8677 52.1074 92.6202 51.755 92.7175 51.1825C92.4788 51.5348 92.1959 51.7991 91.8689 51.9753C91.5418 52.1603 91.1706 52.2483 90.7551 52.2483C89.8181 52.2483 89.0933 51.9136 88.5806 51.2265C88.0679 50.5482 87.8027 49.6497 87.8027 48.531V48.3813C87.8027 47.1921 88.0591 46.2319 88.5806 45.5008C89.1021 44.7697 89.827 44.4085 90.7639 44.4085C91.144 44.4085 91.4799 44.4878 91.7893 44.6552C92.0899 44.8225 92.355 45.0516 92.5849 45.3599V43.3074C92.5849 42.4354 91.4888 42.4442 91.4888 42.4442M89.8446 48.5398C89.8446 49.2005 89.9507 49.7202 90.1805 50.099C90.4015 50.4778 90.7639 50.6716 91.2678 50.6716C91.5683 50.6716 91.8247 50.6099 92.0457 50.4866C92.2666 50.3633 92.4434 50.1959 92.5849 49.9669V46.7605C92.4434 46.5138 92.2666 46.3288 92.0457 46.1967C91.8335 46.0646 91.5772 45.9941 91.2766 45.9941C90.7728 45.9941 90.4104 46.2143 90.1805 46.6548C89.9507 47.0952 89.8358 47.6766 89.8358 48.3901V48.5398H89.8446Z" fill="white"/>
<path d="M96.1387 48.2547C96.1387 47.1272 96.4569 46.2022 97.0845 45.4887C97.7209 44.7664 98.5872 44.4141 99.7098 44.4141C100.832 44.4141 101.708 44.7752 102.344 45.4887C102.98 46.2022 103.29 47.1272 103.29 48.2635V48.4132C103.29 49.5496 102.972 50.4745 102.344 51.188C101.708 51.9015 100.841 52.2627 99.7275 52.2627C98.6137 52.2627 97.7209 51.9015 97.0933 51.188C96.4569 50.4745 96.1475 49.5496 96.1475 48.4132V48.2635L96.1387 48.2547ZM98.1806 48.4044C98.1806 49.0915 98.3043 49.6465 98.543 50.0605C98.7905 50.4745 99.1794 50.6859 99.7186 50.6859C100.258 50.6859 100.638 50.4745 100.877 50.0605C101.124 49.6465 101.248 49.0915 101.248 48.4044V48.2547C101.248 47.5852 101.124 47.0391 100.877 46.6163C100.629 46.1934 100.24 45.982 99.7098 45.982C99.1794 45.982 98.7905 46.1934 98.543 46.6163C98.3043 47.0391 98.1806 47.5852 98.1806 48.2547V48.4044Z" fill="white"/>
<path d="M112.395 50.8719V52.0963H108.479V50.8719C109.425 50.8719 109.354 50.0615 109.354 50.0615V47.3836C109.354 46.8727 109.248 46.5115 109.045 46.3001C108.842 46.0887 108.532 45.983 108.117 45.983C107.843 45.983 107.604 46.0359 107.383 46.1504C107.171 46.2561 106.985 46.4147 106.844 46.6173V50.0703C106.844 50.0703 106.764 50.8807 107.675 50.8807V52.1051H103.821V50.8807C104.82 50.8807 104.802 50.0703 104.802 50.0703V46.5996C104.802 45.6835 103.715 45.7716 103.715 45.7716V44.5384H106.711L106.8 45.6219C107.056 45.2343 107.366 44.9348 107.728 44.7234C108.09 44.512 108.515 44.4062 108.965 44.4062C109.735 44.4062 110.327 44.6441 110.76 45.1286C111.193 45.6131 111.405 46.3618 111.405 47.3836V50.0703C111.405 50.0703 111.326 50.8807 112.386 50.8807" fill="white"/>
<path d="M87.2819 50.8719V52.0963H83.366V50.8719C84.3118 50.8719 84.2411 50.0615 84.2411 50.0615V47.3836C84.2411 46.8727 84.1351 46.5115 83.9317 46.3001C83.7284 46.0887 83.4191 45.983 83.0036 45.983C82.7296 45.983 82.4909 46.0359 82.2699 46.1504C82.0578 46.2561 81.8722 46.4147 81.7307 46.6173V50.0703C81.7307 50.0703 81.6512 50.8807 82.5616 50.8807V52.1051H78.7076V50.8807C79.7065 50.8807 79.6888 50.0703 79.6888 50.0703V46.5996C79.6888 45.6835 78.6016 45.7716 78.6016 45.7716V44.5384H81.5981L81.6865 45.6219C81.9429 45.2343 82.2523 44.9348 82.6147 44.7234C82.9771 44.512 83.4014 44.4062 83.8522 44.4062C84.6212 44.4062 85.2135 44.6441 85.6466 45.1286C86.0797 45.6131 86.2919 46.3618 86.2919 47.3836V50.0703C86.2919 50.0703 86.2123 50.8807 87.2731 50.8807" fill="white"/>
</g>
<defs>
<clipPath id="clip0_1201_948">
<rect width="147" height="65" fill="white"/>
</clipPath>
</defs>
</svg>
